<svg xmlns="http://www.w3.org/2000/svg" viewBox="0 0 32 40" x="0px" y="0px"><g data-name="Layer 9"><path d="M25,18H17a5,5,0,0,0-5,5v1a2,2,0,0,0,2,2H28a2,2,0,0,0,2-2V23A5,5,0,0,0,25,18Zm3,6H14V23a3,3,0,0,1,2-2.82V21a1,1,0,0,0,2,0V20h2v1a1,1,0,0,0,2,0V20h2v1a1,1,0,0,0,2,0v-.82A3,3,0,0,1,28,23Z"/><path d="M12,13V7a1,1,0,0,0-1-1H3A1,1,0,0,0,2,7v6a5,5,0,0,0,4,4.9V24H5a1,1,0,0,0,0,2H9a1,1,0,0,0,0-2H8V17.9A5,5,0,0,0,12,13ZM4,13V8h6v5a3,3,0,0,1-6,0Z"/></g><text x="0" y="47" fill="#000000" font-size="5px" font-weight="bold" font-family="'Helvetica Neue', Helvetica, Arial-Unicode, Arial, Sans-serif">Created by Ahmad Roaayala</text><text x="0" y="52" fill="#000000" font-size="5px" font-weight="bold" font-family="'Helvetica Neue', Helvetica, Arial-Unicode, Arial, Sans-serif">from the Noun Project</text></svg>